<svg xmlns="http://www.w3.org/2000/svg" xmlns:xlink="http://www.w3.org/1999/xlink" width="192" zoomAndPan="magnify" viewBox="0 0 144 143.999998" height="192" preserveAspectRatio="xMidYMid meet" version="1.0"><defs><g/><clipPath id="ef45e075f8"><path d="M 71.601562 8.976562 L 73.949219 8.976562 L 73.949219 27.375 L 71.601562 27.375 Z M 71.601562 8.976562 " clip-rule="nonzero"/></clipPath><clipPath id="fb543c45b8"><path d="M 72.773438 8.976562 C 73.085938 8.976562 73.382812 9.097656 73.605469 9.320312 C 73.824219 9.539062 73.949219 9.835938 73.949219 10.148438 L 73.949219 26.195312 C 73.949219 26.503906 73.824219 26.804688 73.605469 27.023438 C 73.382812 27.242188 73.085938 27.367188 72.773438 27.367188 C 72.464844 27.367188 72.164062 27.242188 71.945312 27.023438 C 71.726562 26.804688 71.601562 26.503906 71.601562 26.195312 L 71.601562 10.148438 C 71.601562 9.835938 71.726562 9.539062 71.945312 9.320312 C 72.164062 9.097656 72.464844 8.976562 72.773438 8.976562 Z M 72.773438 8.976562 " clip-rule="nonzero"/></clipPath><clipPath id="d2878fc390"><path d="M 23.046875 18.566406 L 122.503906 18.566406 L 122.503906 118.023438 L 23.046875 118.023438 Z M 23.046875 18.566406 " clip-rule="nonzero"/></clipPath><clipPath id="442b24f6cb"><path d="M 72.773438 18.566406 C 100.238281 18.566406 122.503906 40.832031 122.503906 68.296875 C 122.503906 95.761719 100.238281 118.023438 72.773438 118.023438 C 45.308594 118.023438 23.046875 95.761719 23.046875 68.296875 C 23.046875 40.832031 45.308594 18.566406 72.773438 18.566406 Z M 72.773438 18.566406 " clip-rule="nonzero"/></clipPath><clipPath id="a23ef6521b"><path d="M 18.761719 48.714844 L 33.59375 48.714844 L 33.59375 88.691406 L 18.761719 88.691406 Z M 18.761719 48.714844 " clip-rule="nonzero"/></clipPath><clipPath id="fe32bbd0b6"><path d="M 26.179688 48.714844 C 28.144531 48.714844 30.03125 49.496094 31.421875 50.886719 C 32.8125 52.277344 33.59375 54.164062 33.59375 56.132812 L 33.59375 81.234375 C 33.59375 85.332031 30.273438 88.652344 26.179688 88.652344 C 22.082031 88.652344 18.761719 85.332031 18.761719 81.234375 L 18.761719 56.132812 C 18.761719 52.035156 22.082031 48.714844 26.179688 48.714844 Z M 26.179688 48.714844 " clip-rule="nonzero"/></clipPath><clipPath id="ff8b33dad6"><path d="M 111.957031 48.714844 L 126.789062 48.714844 L 126.789062 88.691406 L 111.957031 88.691406 Z M 111.957031 48.714844 " clip-rule="nonzero"/></clipPath><clipPath id="42e497919c"><path d="M 119.371094 48.714844 C 121.339844 48.714844 123.226562 49.496094 124.617188 50.886719 C 126.007812 52.277344 126.789062 54.164062 126.789062 56.132812 L 126.789062 81.234375 C 126.789062 85.332031 123.46875 88.652344 119.371094 88.652344 C 115.277344 88.652344 111.957031 85.332031 111.957031 81.234375 L 111.957031 56.132812 C 111.957031 52.035156 115.277344 48.714844 119.371094 48.714844 Z M 119.371094 48.714844 " clip-rule="nonzero"/></clipPath><clipPath id="78395d79b6"><path d="M 33.59375 39.917969 L 112 39.917969 L 112 97.273438 L 33.59375 97.273438 Z M 33.59375 39.917969 " clip-rule="nonzero"/></clipPath><clipPath id="a706dbdf30"><path d="M 56.09375 39.917969 L 89.457031 39.917969 C 101.882812 39.917969 111.957031 49.988281 111.957031 62.417969 L 111.957031 74.773438 C 111.957031 87.199219 101.882812 97.273438 89.457031 97.273438 L 56.09375 97.273438 C 43.667969 97.273438 33.59375 87.199219 33.59375 74.773438 L 33.59375 62.417969 C 33.59375 49.988281 43.667969 39.917969 56.09375 39.917969 Z M 56.09375 39.917969 " clip-rule="nonzero"/></clipPath><clipPath id="e8b29c22ec"><path d="M 40.765625 59.257812 L 104.890625 59.257812 L 104.890625 91.507812 L 40.765625 91.507812 Z M 40.765625 59.257812 " clip-rule="nonzero"/></clipPath><clipPath id="b20452fffe"><path d="M 56.890625 59.257812 L 88.65625 59.257812 C 92.933594 59.257812 97.035156 60.957031 100.058594 63.980469 C 103.085938 67.003906 104.785156 71.105469 104.785156 75.382812 C 104.785156 79.660156 103.085938 83.761719 100.058594 86.785156 C 97.035156 89.8125 92.933594 91.507812 88.65625 91.507812 L 56.890625 91.507812 C 52.617188 91.507812 48.515625 89.8125 45.488281 86.785156 C 42.464844 83.761719 40.765625 79.660156 40.765625 75.382812 C 40.765625 71.105469 42.464844 67.003906 45.488281 63.980469 C 48.515625 60.957031 52.617188 59.257812 56.890625 59.257812 Z M 56.890625 59.257812 " clip-rule="nonzero"/></clipPath><clipPath id="dfdc72c5d4"><path d="M 46.503906 61.753906 L 99.15625 61.753906 L 99.15625 91.507812 L 46.503906 91.507812 Z M 46.503906 61.753906 " clip-rule="nonzero"/></clipPath><clipPath id="172a6938ba"><path d="M 72.773438 61.753906 C 58.265625 61.753906 46.503906 68.417969 46.503906 76.632812 C 46.503906 84.847656 58.265625 91.507812 72.773438 91.507812 C 87.285156 91.507812 99.046875 84.847656 99.046875 76.632812 C 99.046875 68.417969 87.285156 61.753906 72.773438 61.753906 Z M 72.773438 61.753906 " clip-rule="nonzero"/></clipPath><clipPath id="ad5a1e6045"><path d="M 46.503906 53.667969 L 99.15625 53.667969 L 99.15625 83.421875 L 46.503906 83.421875 Z M 46.503906 53.667969 " clip-rule="nonzero"/></clipPath><clipPath id="0fd29731a1"><path d="M 72.773438 53.667969 C 58.265625 53.667969 46.503906 60.328125 46.503906 68.546875 C 46.503906 76.761719 58.265625 83.421875 72.773438 83.421875 C 87.285156 83.421875 99.046875 76.761719 99.046875 68.546875 C 99.046875 60.328125 87.285156 53.667969 72.773438 53.667969 Z M 72.773438 53.667969 " clip-rule="nonzero"/></clipPath><clipPath id="7be241378f"><path d="M 49.179688 48.714844 L 69.011719 48.714844 L 69.011719 68.546875 L 49.179688 68.546875 Z M 49.179688 48.714844 " clip-rule="nonzero"/></clipPath><clipPath id="b88bb68365"><path d="M 59.09375 48.714844 C 53.621094 48.714844 49.179688 53.15625 49.179688 58.628906 C 49.179688 64.105469 53.621094 68.546875 59.09375 68.546875 C 64.570312 68.546875 69.011719 64.105469 69.011719 58.628906 C 69.011719 53.15625 64.570312 48.714844 59.09375 48.714844 Z M 59.09375 48.714844 " clip-rule="nonzero"/></clipPath><clipPath id="416b9cfcc9"><path d="M 76.539062 48.714844 L 96.371094 48.714844 L 96.371094 68.546875 L 76.539062 68.546875 Z M 76.539062 48.714844 " clip-rule="nonzero"/></clipPath><clipPath id="5229a0c498"><path d="M 86.453125 48.714844 C 80.976562 48.714844 76.539062 53.15625 76.539062 58.628906 C 76.539062 64.105469 80.976562 68.546875 86.453125 68.546875 C 91.929688 68.546875 96.371094 64.105469 96.371094 58.628906 C 96.371094 53.15625 91.929688 48.714844 86.453125 48.714844 Z M 86.453125 48.714844 " clip-rule="nonzero"/></clipPath><clipPath id="cb7a8228eb"><path d="M 40.765625 58.628906 L 104.792969 58.628906 L 104.792969 68.59375 L 40.765625 68.59375 Z M 40.765625 58.628906 " clip-rule="nonzero"/></clipPath><clipPath id="ae8d5816e9"><path d="M 45.75 58.628906 L 99.800781 58.628906 C 101.121094 58.628906 102.390625 59.15625 103.324219 60.089844 C 104.257812 61.023438 104.785156 62.292969 104.785156 63.613281 C 104.785156 64.933594 104.257812 66.199219 103.324219 67.136719 C 102.390625 68.070312 101.121094 68.59375 99.800781 68.59375 L 45.75 68.59375 C 44.425781 68.59375 43.160156 68.070312 42.226562 67.136719 C 41.292969 66.199219 40.765625 64.933594 40.765625 63.613281 C 40.765625 62.292969 41.292969 61.023438 42.226562 60.089844 C 43.160156 59.15625 44.425781 58.628906 45.75 58.628906 Z M 45.75 58.628906 " clip-rule="nonzero"/></clipPath><clipPath id="3d6aab1e21"><path d="M 66.402344 2.566406 L 79.175781 2.566406 L 79.175781 14.769531 L 66.402344 14.769531 Z M 66.402344 2.566406 " clip-rule="nonzero"/></clipPath><clipPath id="f000ea39c8"><path d="M 72.773438 2.566406 C 69.253906 2.566406 66.402344 5.296875 66.402344 8.667969 C 66.402344 12.039062 69.253906 14.769531 72.773438 14.769531 C 76.292969 14.769531 79.148438 12.039062 79.148438 8.667969 C 79.148438 5.296875 76.292969 2.566406 72.773438 2.566406 Z M 72.773438 2.566406 " clip-rule="nonzero"/></clipPath><clipPath id="8c49ba131d"><path d="M 48.042969 118.777344 L 56.542969 118.777344 L 56.542969 140.421875 L 48.042969 140.421875 Z M 48.042969 118.777344 " clip-rule="nonzero"/></clipPath><clipPath id="b13c0e2812"><path d="M 50.8125 124.007812 L 53.773438 124.007812 L 53.773438 139.394531 L 50.8125 139.394531 Z M 50.8125 124.007812 " clip-rule="nonzero"/></clipPath><clipPath id="2295fb542b"><path d="M 51.070312 120.664062 L 53.515625 120.664062 L 53.515625 123.128906 L 51.070312 123.128906 Z M 51.070312 120.664062 " clip-rule="nonzero"/></clipPath><clipPath id="80252479f3"><path d="M 48.042969 140.621094 L 56.542969 140.621094 L 56.542969 141.3125 L 48.042969 141.3125 Z M 48.042969 140.621094 " clip-rule="nonzero"/></clipPath></defs><rect x="-14.4" width="172.8" fill="#ffffff" y="-14.4" height="172.799997" fill-opacity="1"/><rect x="-14.4" width="172.8" fill="#ffffff" y="-14.4" height="172.799997" fill-opacity="1"/><g clip-path="url(#ef45e075f8)"><g clip-path="url(#fb543c45b8)"><path fill="#000000" d="M 71.601562 8.976562 L 73.949219 8.976562 L 73.949219 27.367188 L 71.601562 27.367188 Z M 71.601562 8.976562 " fill-opacity="1" fill-rule="nonzero"/></g></g><g clip-path="url(#d2878fc390)"><g clip-path="url(#442b24f6cb)"><path fill="#0097b2" d="M 23.046875 18.566406 L 122.503906 18.566406 L 122.503906 118.023438 L 23.046875 118.023438 Z M 23.046875 18.566406 " fill-opacity="1" fill-rule="nonzero"/></g></g><g clip-path="url(#a23ef6521b)"><g clip-path="url(#fe32bbd0b6)"><path fill="#0097b2" d="M 18.761719 48.714844 L 33.59375 48.714844 L 33.59375 88.632812 L 18.761719 88.632812 Z M 18.761719 48.714844 " fill-opacity="1" fill-rule="nonzero"/></g></g><g clip-path="url(#ff8b33dad6)"><g clip-path="url(#42e497919c)"><path fill="#0097b2" d="M 111.957031 48.714844 L 126.789062 48.714844 L 126.789062 88.632812 L 111.957031 88.632812 Z M 111.957031 48.714844 " fill-opacity="1" fill-rule="nonzero"/></g></g><g clip-path="url(#78395d79b6)"><g clip-path="url(#a706dbdf30)"><path fill="#ffffff" d="M 33.59375 39.917969 L 112.011719 39.917969 L 112.011719 97.273438 L 33.59375 97.273438 Z M 33.59375 39.917969 " fill-opacity="1" fill-rule="nonzero"/></g></g><g clip-path="url(#e8b29c22ec)"><g clip-path="url(#b20452fffe)"><path fill="#ffffff" d="M 40.765625 59.257812 L 104.765625 59.257812 L 104.765625 91.507812 L 40.765625 91.507812 Z M 40.765625 59.257812 " fill-opacity="1" fill-rule="nonzero"/></g></g><g clip-path="url(#dfdc72c5d4)"><g clip-path="url(#172a6938ba)"><path fill="#000000" d="M 46.503906 61.753906 L 99.039062 61.753906 L 99.039062 91.507812 L 46.503906 91.507812 Z M 46.503906 61.753906 " fill-opacity="1" fill-rule="nonzero"/></g></g><g clip-path="url(#ad5a1e6045)"><g clip-path="url(#0fd29731a1)"><path fill="#ffffff" d="M 46.503906 53.667969 L 99.039062 53.667969 L 99.039062 83.421875 L 46.503906 83.421875 Z M 46.503906 53.667969 " fill-opacity="1" fill-rule="nonzero"/></g></g><g clip-path="url(#7be241378f)"><g clip-path="url(#b88bb68365)"><path fill="#000000" d="M 49.179688 48.714844 L 69.011719 48.714844 L 69.011719 68.546875 L 49.179688 68.546875 Z M 49.179688 48.714844 " fill-opacity="1" fill-rule="nonzero"/></g></g><g clip-path="url(#416b9cfcc9)"><g clip-path="url(#5229a0c498)"><path fill="#000000" d="M 76.539062 48.714844 L 96.371094 48.714844 L 96.371094 68.546875 L 76.539062 68.546875 Z M 76.539062 48.714844 " fill-opacity="1" fill-rule="nonzero"/></g></g><g clip-path="url(#cb7a8228eb)"><g clip-path="url(#ae8d5816e9)"><path fill="#ffffff" d="M 40.765625 58.628906 L 104.792969 58.628906 L 104.792969 68.59375 L 40.765625 68.59375 Z M 40.765625 58.628906 " fill-opacity="1" fill-rule="nonzero"/></g></g><g clip-path="url(#3d6aab1e21)"><g clip-path="url(#f000ea39c8)"><path fill="#ff914d" d="M 66.402344 2.566406 L 79.128906 2.566406 L 79.128906 14.769531 L 66.402344 14.769531 Z M 66.402344 2.566406 " fill-opacity="1" fill-rule="nonzero"/></g></g><g clip-path="url(#8c49ba131d)"><path fill="#ff914d" d="M 48.042969 118.777344 L 56.542969 118.777344 L 56.542969 140.425781 L 48.042969 140.425781 Z M 48.042969 118.777344 " fill-opacity="1" fill-rule="nonzero"/></g><g clip-path="url(#b13c0e2812)"><path fill="#000000" d="M 50.8125 124.007812 L 53.773438 124.007812 L 53.773438 139.394531 L 50.8125 139.394531 Z M 50.8125 124.007812 " fill-opacity="1" fill-rule="nonzero"/></g><g clip-path="url(#2295fb542b)"><path fill="#000000" d="M 51.070312 120.664062 L 53.515625 120.664062 L 53.515625 123.128906 L 51.070312 123.128906 Z M 51.070312 120.664062 " fill-opacity="1" fill-rule="nonzero"/></g><g fill="#000000" fill-opacity="1"><g transform="translate(56.542887, 138.792207)"><g><path d="M 8.152344 0.242188 C 11.746094 0.242188 14.085938 -2.582031 14.085938 -6.65625 C 14.085938 -10.757812 11.746094 -13.578125 8.152344 -13.578125 C 6.367188 -13.578125 5.160156 -13.050781 3.785156 -11.265625 L 3.785156 -18.402344 L 1.738281 -18.402344 L 1.738281 0 L 3.785156 0 L 3.785156 -2.074219 C 5.136719 -0.335938 6.320312 0.242188 8.152344 0.242188 Z M 7.960938 -1.566406 C 5.476562 -1.566406 3.714844 -3.714844 3.714844 -6.65625 C 3.714844 -9.625 5.476562 -11.769531 7.960938 -11.769531 C 10.46875 -11.769531 12.035156 -9.574219 12.035156 -6.65625 C 12.035156 -3.761719 10.46875 -1.566406 7.960938 -1.566406 Z M 7.960938 -1.566406 "/></g></g></g><g fill="#000000" fill-opacity="1"><g transform="translate(71.835384, 138.792207)"><g><path d="M 7.671875 0.242188 C 11.53125 0.242188 14.230469 -2.703125 14.230469 -6.730469 C 14.230469 -10.683594 11.480469 -13.578125 7.671875 -13.578125 C 3.859375 -13.578125 1.15625 -10.683594 1.15625 -6.730469 C 1.15625 -2.652344 3.859375 0.242188 7.671875 0.242188 Z M 7.671875 -1.566406 C 5.136719 -1.566406 3.207031 -3.714844 3.207031 -6.730469 C 3.207031 -9.625 5.113281 -11.769531 7.671875 -11.769531 C 10.25 -11.769531 12.15625 -9.574219 12.15625 -6.730469 C 12.15625 -3.761719 10.226562 -1.566406 7.671875 -1.566406 Z M 7.671875 -1.566406 "/></g></g></g><g fill="#000000" fill-opacity="1"><g transform="translate(87.248487, 138.792207)"><g><path d="M 7.816406 0 L 7.816406 -1.808594 L 6.441406 -1.808594 C 4.945312 -1.808594 4.847656 -2.582031 4.847656 -3.761719 L 4.847656 -11.53125 L 7.839844 -11.53125 L 7.839844 -13.339844 L 4.847656 -13.339844 L 4.847656 -18.402344 L 2.796875 -18.402344 L 2.796875 -13.339844 L 0.652344 -13.339844 L 0.652344 -11.53125 L 2.796875 -11.53125 L 2.796875 -3.351562 C 2.796875 -0.675781 3.957031 0 5.957031 0 Z M 7.816406 0 "/></g></g></g><g clip-path="url(#80252479f3)"><path fill="#0097b2" d="M 48.042969 140.621094 L 56.542969 140.621094 L 56.542969 141.3125 L 48.042969 141.3125 Z M 48.042969 140.621094 " fill-opacity="1" fill-rule="nonzero"/></g></svg>