<svg xmlns="http://www.w3.org/2000/svg" xmlns:xlink="http://www.w3.org/1999/xlink" width="48" zoomAndPan="magnify" viewBox="0 0 36 36.000001" height="48" preserveAspectRatio="xMidYMid meet" version="1.0"><defs><clipPath id="f2bb050af5"><path d="M 0.488281 0 L 35.511719 0 L 35.511719 35.027344 L 0.488281 35.027344 Z M 0.488281 0 " clip-rule="nonzero"/></clipPath><clipPath id="9efcd38795"><path d="M 17.832031 2.496094 L 18.519531 2.496094 L 18.519531 7.875 L 17.832031 7.875 Z M 17.832031 2.496094 " clip-rule="nonzero"/></clipPath><clipPath id="2d48b0499d"><path d="M 18.175781 2.496094 C 18.265625 2.496094 18.355469 2.535156 18.417969 2.597656 C 18.484375 2.660156 18.519531 2.75 18.519531 2.839844 L 18.519531 7.527344 C 18.519531 7.621094 18.484375 7.707031 18.417969 7.773438 C 18.355469 7.835938 18.265625 7.871094 18.175781 7.871094 C 18.085938 7.871094 17.996094 7.835938 17.933594 7.773438 C 17.871094 7.707031 17.832031 7.621094 17.832031 7.527344 L 17.832031 2.839844 C 17.832031 2.75 17.871094 2.660156 17.933594 2.597656 C 17.996094 2.535156 18.085938 2.496094 18.175781 2.496094 Z M 18.175781 2.496094 " clip-rule="nonzero"/></clipPath><clipPath id="b045b60d10"><path d="M 3.644531 5.300781 L 32.710938 5.300781 L 32.710938 34.367188 L 3.644531 34.367188 Z M 3.644531 5.300781 " clip-rule="nonzero"/></clipPath><clipPath id="4a21467298"><path d="M 18.175781 5.300781 C 26.203125 5.300781 32.710938 11.808594 32.710938 19.832031 C 32.710938 27.859375 26.203125 34.367188 18.175781 34.367188 C 10.148438 34.367188 3.644531 27.859375 3.644531 19.832031 C 3.644531 11.808594 10.148438 5.300781 18.175781 5.300781 Z M 18.175781 5.300781 " clip-rule="nonzero"/></clipPath><clipPath id="ac49097b97"><path d="M 2.390625 14.109375 L 6.726562 14.109375 L 6.726562 25.792969 L 2.390625 25.792969 Z M 2.390625 14.109375 " clip-rule="nonzero"/></clipPath><clipPath id="afe023d4a1"><path d="M 4.558594 14.109375 C 5.132812 14.109375 5.683594 14.339844 6.089844 14.746094 C 6.496094 15.152344 6.726562 15.703125 6.726562 16.277344 L 6.726562 23.613281 C 6.726562 24.8125 5.753906 25.78125 4.558594 25.78125 C 3.363281 25.78125 2.390625 24.8125 2.390625 23.613281 L 2.390625 16.277344 C 2.390625 15.082031 3.363281 14.109375 4.558594 14.109375 Z M 4.558594 14.109375 " clip-rule="nonzero"/></clipPath><clipPath id="836a7a28c0"><path d="M 29.625 14.109375 L 33.960938 14.109375 L 33.960938 25.792969 L 29.625 25.792969 Z M 29.625 14.109375 " clip-rule="nonzero"/></clipPath><clipPath id="5a20cf356c"><path d="M 31.792969 14.109375 C 32.367188 14.109375 32.917969 14.339844 33.328125 14.746094 C 33.734375 15.152344 33.960938 15.703125 33.960938 16.277344 L 33.960938 23.613281 C 33.960938 24.8125 32.992188 25.78125 31.792969 25.78125 C 30.597656 25.78125 29.625 24.8125 29.625 23.613281 L 29.625 16.277344 C 29.625 15.082031 30.597656 14.109375 31.792969 14.109375 Z M 31.792969 14.109375 " clip-rule="nonzero"/></clipPath><clipPath id="090f06afad"><path d="M 6.726562 11.539062 L 29.640625 11.539062 L 29.640625 28.300781 L 6.726562 28.300781 Z M 6.726562 11.539062 " clip-rule="nonzero"/></clipPath><clipPath id="918e51926f"><path d="M 15.105469 11.539062 L 21.246094 11.539062 C 25.875 11.539062 29.625 15.292969 29.625 19.921875 C 29.625 24.550781 25.875 28.300781 21.246094 28.300781 L 15.105469 28.300781 C 10.476562 28.300781 6.726562 24.550781 6.726562 19.921875 C 6.726562 15.292969 10.476562 11.539062 15.105469 11.539062 Z M 15.105469 11.539062 " clip-rule="nonzero"/></clipPath><clipPath id="584c148b86"><path d="M 8.820312 17.191406 L 27.5625 17.191406 L 27.5625 26.617188 L 8.820312 26.617188 Z M 8.820312 17.191406 " clip-rule="nonzero"/></clipPath><clipPath id="d8f35f0f89"><path d="M 13.535156 17.191406 L 22.816406 17.191406 C 24.066406 17.191406 25.265625 17.6875 26.148438 18.574219 C 27.035156 19.457031 27.53125 20.65625 27.53125 21.90625 C 27.53125 23.15625 27.035156 24.351562 26.148438 25.238281 C 25.265625 26.121094 24.066406 26.617188 22.816406 26.617188 L 13.535156 26.617188 C 12.285156 26.617188 11.085938 26.121094 10.203125 25.238281 C 9.320312 24.351562 8.820312 23.15625 8.820312 21.90625 C 8.820312 20.65625 9.320312 19.457031 10.203125 18.574219 C 11.085938 17.6875 12.285156 17.191406 13.535156 17.191406 Z M 13.535156 17.191406 " clip-rule="nonzero"/></clipPath><clipPath id="6f6df6d20a"><path d="M 10.5 17.921875 L 25.886719 17.921875 L 25.886719 26.617188 L 10.5 26.617188 Z M 10.5 17.921875 " clip-rule="nonzero"/></clipPath><clipPath id="f71631a299"><path d="M 18.175781 17.921875 C 13.9375 17.921875 10.5 19.867188 10.5 22.269531 C 10.5 24.671875 13.9375 26.617188 18.175781 26.617188 C 22.417969 26.617188 25.855469 24.671875 25.855469 22.269531 C 25.855469 19.867188 22.417969 17.921875 18.175781 17.921875 Z M 18.175781 17.921875 " clip-rule="nonzero"/></clipPath><clipPath id="06e4f24032"><path d="M 10.5 15.558594 L 25.886719 15.558594 L 25.886719 24.253906 L 10.5 24.253906 Z M 10.5 15.558594 " clip-rule="nonzero"/></clipPath><clipPath id="417ae6ba26"><path d="M 18.175781 15.558594 C 13.9375 15.558594 10.5 17.503906 10.5 19.90625 C 10.5 22.308594 13.9375 24.253906 18.175781 24.253906 C 22.417969 24.253906 25.855469 22.308594 25.855469 19.90625 C 25.855469 17.503906 22.417969 15.558594 18.175781 15.558594 Z M 18.175781 15.558594 " clip-rule="nonzero"/></clipPath><clipPath id="82019cc24f"><path d="M 11.28125 14.109375 L 17.074219 14.109375 L 17.074219 19.90625 L 11.28125 19.90625 Z M 11.28125 14.109375 " clip-rule="nonzero"/></clipPath><clipPath id="be9e2ac941"><path d="M 14.179688 14.109375 C 12.578125 14.109375 11.28125 15.410156 11.28125 17.007812 C 11.28125 18.609375 12.578125 19.90625 14.179688 19.90625 C 15.777344 19.90625 17.074219 18.609375 17.074219 17.007812 C 17.074219 15.410156 15.777344 14.109375 14.179688 14.109375 Z M 14.179688 14.109375 " clip-rule="nonzero"/></clipPath><clipPath id="d1d47af078"><path d="M 19.277344 14.109375 L 25.070312 14.109375 L 25.070312 19.90625 L 19.277344 19.90625 Z M 19.277344 14.109375 " clip-rule="nonzero"/></clipPath><clipPath id="6c409badf9"><path d="M 22.175781 14.109375 C 20.574219 14.109375 19.277344 15.410156 19.277344 17.007812 C 19.277344 18.609375 20.574219 19.90625 22.175781 19.90625 C 23.773438 19.90625 25.070312 18.609375 25.070312 17.007812 C 25.070312 15.410156 23.773438 14.109375 22.175781 14.109375 Z M 22.175781 14.109375 " clip-rule="nonzero"/></clipPath><clipPath id="82b8618156"><path d="M 8.820312 17.007812 L 27.53125 17.007812 L 27.53125 19.921875 L 8.820312 19.921875 Z M 8.820312 17.007812 " clip-rule="nonzero"/></clipPath><clipPath id="0cfd94b7e5"><path d="M 10.277344 17.007812 L 26.074219 17.007812 C 26.460938 17.007812 26.832031 17.160156 27.105469 17.433594 C 27.378906 17.707031 27.53125 18.078125 27.53125 18.464844 C 27.53125 18.851562 27.378906 19.222656 27.105469 19.496094 C 26.832031 19.765625 26.460938 19.921875 26.074219 19.921875 L 10.277344 19.921875 C 9.890625 19.921875 9.519531 19.765625 9.25 19.496094 C 8.976562 19.222656 8.820312 18.851562 8.820312 18.464844 C 8.820312 18.078125 8.976562 17.707031 9.25 17.433594 C 9.519531 17.160156 9.890625 17.007812 10.277344 17.007812 Z M 10.277344 17.007812 " clip-rule="nonzero"/></clipPath><clipPath id="afce628770"><path d="M 16.3125 0.625 L 20.046875 0.625 L 20.046875 4.191406 L 16.3125 4.191406 Z M 16.3125 0.625 " clip-rule="nonzero"/></clipPath><clipPath id="9dddd8b482"><path d="M 18.175781 0.625 C 17.148438 0.625 16.3125 1.421875 16.3125 2.40625 C 16.3125 3.390625 17.148438 4.191406 18.175781 4.191406 C 19.203125 4.191406 20.039062 3.390625 20.039062 2.40625 C 20.039062 1.421875 19.203125 0.625 18.175781 0.625 Z M 18.175781 0.625 " clip-rule="nonzero"/></clipPath></defs><g clip-path="url(#f2bb050af5)"><path fill="#ffffff" d="M 0.488281 0 L 35.511719 0 L 35.511719 35.027344 L 0.488281 35.027344 Z M 0.488281 0 " fill-opacity="1" fill-rule="nonzero"/><path fill="#ffffff" d="M 0.488281 0 L 35.511719 0 L 35.511719 35.027344 L 0.488281 35.027344 Z M 0.488281 0 " fill-opacity="1" fill-rule="nonzero"/></g><g clip-path="url(#9efcd38795)"><g clip-path="url(#2d48b0499d)"><path fill="#000000" d="M 17.832031 2.496094 L 18.519531 2.496094 L 18.519531 7.871094 L 17.832031 7.871094 Z M 17.832031 2.496094 " fill-opacity="1" fill-rule="nonzero"/></g></g><g clip-path="url(#b045b60d10)"><g clip-path="url(#4a21467298)"><path fill="#0097b2" d="M 3.644531 5.300781 L 32.710938 5.300781 L 32.710938 34.367188 L 3.644531 34.367188 Z M 3.644531 5.300781 " fill-opacity="1" fill-rule="nonzero"/></g></g><g clip-path="url(#ac49097b97)"><g clip-path="url(#afe023d4a1)"><path fill="#0097b2" d="M 2.390625 14.109375 L 6.726562 14.109375 L 6.726562 25.777344 L 2.390625 25.777344 Z M 2.390625 14.109375 " fill-opacity="1" fill-rule="nonzero"/></g></g><g clip-path="url(#836a7a28c0)"><g clip-path="url(#5a20cf356c)"><path fill="#0097b2" d="M 29.625 14.109375 L 33.960938 14.109375 L 33.960938 25.777344 L 29.625 25.777344 Z M 29.625 14.109375 " fill-opacity="1" fill-rule="nonzero"/></g></g><g clip-path="url(#090f06afad)"><g clip-path="url(#918e51926f)"><path fill="#ffffff" d="M 6.726562 11.539062 L 29.640625 11.539062 L 29.640625 28.300781 L 6.726562 28.300781 Z M 6.726562 11.539062 " fill-opacity="1" fill-rule="nonzero"/></g></g><g clip-path="url(#584c148b86)"><g clip-path="url(#d8f35f0f89)"><path fill="#ffffff" d="M 8.820312 17.191406 L 27.523438 17.191406 L 27.523438 26.617188 L 8.820312 26.617188 Z M 8.820312 17.191406 " fill-opacity="1" fill-rule="nonzero"/></g></g><g clip-path="url(#6f6df6d20a)"><g clip-path="url(#f71631a299)"><path fill="#000000" d="M 10.5 17.921875 L 25.851562 17.921875 L 25.851562 26.617188 L 10.5 26.617188 Z M 10.5 17.921875 " fill-opacity="1" fill-rule="nonzero"/></g></g><g clip-path="url(#06e4f24032)"><g clip-path="url(#417ae6ba26)"><path fill="#ffffff" d="M 10.5 15.558594 L 25.851562 15.558594 L 25.851562 24.253906 L 10.5 24.253906 Z M 10.5 15.558594 " fill-opacity="1" fill-rule="nonzero"/></g></g><g clip-path="url(#82019cc24f)"><g clip-path="url(#be9e2ac941)"><path fill="#000000" d="M 11.28125 14.109375 L 17.074219 14.109375 L 17.074219 19.90625 L 11.28125 19.90625 Z M 11.28125 14.109375 " fill-opacity="1" fill-rule="nonzero"/></g></g><g clip-path="url(#d1d47af078)"><g clip-path="url(#6c409badf9)"><path fill="#000000" d="M 19.277344 14.109375 L 25.070312 14.109375 L 25.070312 19.90625 L 19.277344 19.90625 Z M 19.277344 14.109375 " fill-opacity="1" fill-rule="nonzero"/></g></g><g clip-path="url(#82b8618156)"><g clip-path="url(#0cfd94b7e5)"><path fill="#ffffff" d="M 8.820312 17.007812 L 27.53125 17.007812 L 27.53125 19.921875 L 8.820312 19.921875 Z M 8.820312 17.007812 " fill-opacity="1" fill-rule="nonzero"/></g></g><g clip-path="url(#afce628770)"><g clip-path="url(#9dddd8b482)"><path fill="#ff914d" d="M 16.3125 0.625 L 20.03125 0.625 L 20.03125 4.191406 L 16.3125 4.191406 Z M 16.3125 0.625 " fill-opacity="1" fill-rule="nonzero"/></g></g></svg>