<svg xmlns="http://www.w3.org/2000/svg" xmlns:xlink="http://www.w3.org/1999/xlink" width="150" zoomAndPan="magnify" viewBox="0 0 112.5 112.499997" height="150" preserveAspectRatio="xMidYMid meet" version="1.0"><defs><clipPath id="4a948e9194"><path d="M 0 0 L 112.003906 0 L 112.003906 112.003906 L 0 112.003906 Z M 0 0 " clip-rule="nonzero"/></clipPath><clipPath id="0b762071fa"><path d="M 55.46875 7.984375 L 57.660156 7.984375 L 57.660156 25.179688 L 55.46875 25.179688 Z M 55.46875 7.984375 " clip-rule="nonzero"/></clipPath><clipPath id="ed3e6cebfd"><path d="M 56.5625 7.984375 C 56.855469 7.984375 57.132812 8.101562 57.339844 8.304688 C 57.546875 8.511719 57.660156 8.789062 57.660156 9.082031 L 57.660156 24.074219 C 57.660156 24.367188 57.546875 24.644531 57.339844 24.851562 C 57.132812 25.054688 56.855469 25.171875 56.5625 25.171875 C 56.273438 25.171875 55.996094 25.054688 55.789062 24.851562 C 55.582031 24.644531 55.46875 24.367188 55.46875 24.074219 L 55.46875 9.082031 C 55.46875 8.789062 55.582031 8.511719 55.789062 8.304688 C 55.996094 8.101562 56.273438 7.984375 56.5625 7.984375 Z M 56.5625 7.984375 " clip-rule="nonzero"/></clipPath><clipPath id="de870747c9"><path d="M 10.09375 16.949219 L 103.035156 16.949219 L 103.035156 109.890625 L 10.09375 109.890625 Z M 10.09375 16.949219 " clip-rule="nonzero"/></clipPath><clipPath id="833c35a800"><path d="M 56.5625 16.949219 C 82.230469 16.949219 103.035156 37.753906 103.035156 63.417969 C 103.035156 89.082031 82.230469 109.890625 56.5625 109.890625 C 30.898438 109.890625 10.09375 89.082031 10.09375 63.417969 C 10.09375 37.753906 30.898438 16.949219 56.5625 16.949219 Z M 56.5625 16.949219 " clip-rule="nonzero"/></clipPath><clipPath id="5abb1a8314"><path d="M 6.089844 45.121094 L 19.949219 45.121094 L 19.949219 82.476562 L 6.089844 82.476562 Z M 6.089844 45.121094 " clip-rule="nonzero"/></clipPath><clipPath id="451b6bb11b"><path d="M 13.019531 45.121094 C 14.859375 45.121094 16.621094 45.851562 17.921875 47.152344 C 19.21875 48.449219 19.949219 50.214844 19.949219 52.050781 L 19.949219 75.511719 C 19.949219 79.339844 16.847656 82.441406 13.019531 82.441406 C 9.191406 82.441406 6.089844 79.339844 6.089844 75.511719 L 6.089844 52.050781 C 6.089844 48.222656 9.191406 45.121094 13.019531 45.121094 Z M 13.019531 45.121094 " clip-rule="nonzero"/></clipPath><clipPath id="c4fd6193c9"><path d="M 93.179688 45.121094 L 107.039062 45.121094 L 107.039062 82.476562 L 93.179688 82.476562 Z M 93.179688 45.121094 " clip-rule="nonzero"/></clipPath><clipPath id="2643c8b567"><path d="M 100.109375 45.121094 C 101.945312 45.121094 103.707031 45.851562 105.007812 47.152344 C 106.308594 48.449219 107.039062 50.214844 107.039062 52.050781 L 107.039062 75.511719 C 107.039062 79.339844 103.933594 82.441406 100.109375 82.441406 C 96.28125 82.441406 93.179688 79.339844 93.179688 75.511719 L 93.179688 52.050781 C 93.179688 48.222656 96.28125 45.121094 100.109375 45.121094 Z M 100.109375 45.121094 " clip-rule="nonzero"/></clipPath><clipPath id="f567f49e90"><path d="M 19.742188 36.6875 L 93.230469 36.6875 L 93.230469 90.496094 L 19.742188 90.496094 Z M 19.742188 36.6875 " clip-rule="nonzero"/></clipPath><clipPath id="f0aa356d64"><path d="M 42.351562 36.898438 L 70.777344 36.898438 C 76.71875 36.898438 82.417969 39.257812 86.617188 43.460938 C 90.820312 47.660156 93.179688 53.359375 93.179688 59.300781 L 93.179688 68.097656 C 93.179688 74.039062 90.820312 79.734375 86.617188 83.9375 C 82.417969 88.136719 76.71875 90.496094 70.777344 90.496094 L 42.351562 90.496094 C 36.410156 90.496094 30.710938 88.136719 26.511719 83.9375 C 22.308594 79.734375 19.949219 74.039062 19.949219 68.097656 L 19.949219 59.300781 C 19.949219 53.359375 22.308594 47.660156 26.511719 43.460938 C 30.710938 39.257812 36.410156 36.898438 42.351562 36.898438 Z M 42.351562 36.898438 " clip-rule="nonzero"/></clipPath><clipPath id="e1d07d6007"><path d="M 26.652344 54.972656 L 86.578125 54.972656 L 86.578125 85.113281 L 26.652344 85.113281 Z M 26.652344 54.972656 " clip-rule="nonzero"/></clipPath><clipPath id="b354065051"><path d="M 41.722656 54.972656 L 71.40625 54.972656 C 75.402344 54.972656 79.234375 56.5625 82.0625 59.386719 C 84.886719 62.214844 86.476562 66.046875 86.476562 70.042969 C 86.476562 74.039062 84.886719 77.871094 82.0625 80.699219 C 79.234375 83.523438 75.402344 85.113281 71.40625 85.113281 L 41.722656 85.113281 C 37.726562 85.113281 33.894531 83.523438 31.066406 80.699219 C 28.242188 77.871094 26.652344 74.039062 26.652344 70.042969 C 26.652344 66.046875 28.242188 62.214844 31.066406 59.386719 C 33.894531 56.5625 37.726562 54.972656 41.722656 54.972656 Z M 41.722656 54.972656 " clip-rule="nonzero"/></clipPath><clipPath id="8f8e44b2d6"><path d="M 32.015625 57.308594 L 81.214844 57.308594 L 81.214844 85.113281 L 32.015625 85.113281 Z M 32.015625 57.308594 " clip-rule="nonzero"/></clipPath><clipPath id="1b17286593"><path d="M 56.5625 57.308594 C 43.007812 57.308594 32.015625 63.53125 32.015625 71.210938 C 32.015625 78.886719 43.007812 85.113281 56.5625 85.113281 C 70.121094 85.113281 81.113281 78.886719 81.113281 71.210938 C 81.113281 63.53125 70.121094 57.308594 56.5625 57.308594 Z M 56.5625 57.308594 " clip-rule="nonzero"/></clipPath><clipPath id="b3cfbc1db1"><path d="M 32.015625 49.75 L 81.214844 49.75 L 81.214844 77.554688 L 32.015625 77.554688 Z M 32.015625 49.75 " clip-rule="nonzero"/></clipPath><clipPath id="084dfc9569"><path d="M 56.5625 49.75 C 43.007812 49.75 32.015625 55.972656 32.015625 63.652344 C 32.015625 71.332031 43.007812 77.554688 56.5625 77.554688 C 70.121094 77.554688 81.113281 71.332031 81.113281 63.652344 C 81.113281 55.972656 70.121094 49.75 56.5625 49.75 Z M 56.5625 49.75 " clip-rule="nonzero"/></clipPath><clipPath id="1444d2b57a"><path d="M 34.515625 45.121094 L 53.046875 45.121094 L 53.046875 63.652344 L 34.515625 63.652344 Z M 34.515625 45.121094 " clip-rule="nonzero"/></clipPath><clipPath id="7e5953643b"><path d="M 43.78125 45.121094 C 38.664062 45.121094 34.515625 49.269531 34.515625 54.386719 C 34.515625 59.503906 38.664062 63.652344 43.78125 63.652344 C 48.898438 63.652344 53.046875 59.503906 53.046875 54.386719 C 53.046875 49.269531 48.898438 45.121094 43.78125 45.121094 Z M 43.78125 45.121094 " clip-rule="nonzero"/></clipPath><clipPath id="a7483cd71a"><path d="M 60.082031 45.121094 L 78.613281 45.121094 L 78.613281 63.652344 L 60.082031 63.652344 Z M 60.082031 45.121094 " clip-rule="nonzero"/></clipPath><clipPath id="8608e78083"><path d="M 69.347656 45.121094 C 64.230469 45.121094 60.082031 49.269531 60.082031 54.386719 C 60.082031 59.503906 64.230469 63.652344 69.347656 63.652344 C 74.464844 63.652344 78.613281 59.503906 78.613281 54.386719 C 78.613281 49.269531 74.464844 45.121094 69.347656 45.121094 Z M 69.347656 45.121094 " clip-rule="nonzero"/></clipPath><clipPath id="dcb2d01991"><path d="M 26.652344 54.386719 L 86.484375 54.386719 L 86.484375 63.699219 L 26.652344 63.699219 Z M 26.652344 54.386719 " clip-rule="nonzero"/></clipPath><clipPath id="ff3aa82f16"><path d="M 31.308594 54.386719 L 81.820312 54.386719 C 83.054688 54.386719 84.238281 54.878906 85.113281 55.75 C 85.984375 56.625 86.476562 57.808594 86.476562 59.042969 C 86.476562 60.277344 85.984375 61.460938 85.113281 62.335938 C 84.238281 63.207031 83.054688 63.699219 81.820312 63.699219 L 31.308594 63.699219 C 30.074219 63.699219 28.890625 63.207031 28.015625 62.335938 C 27.144531 61.460938 26.652344 60.277344 26.652344 59.042969 C 26.652344 57.808594 27.144531 56.625 28.015625 55.75 C 28.890625 54.878906 30.074219 54.386719 31.308594 54.386719 Z M 31.308594 54.386719 " clip-rule="nonzero"/></clipPath><clipPath id="60f436b5cf"><path d="M 50.609375 1.996094 L 62.546875 1.996094 L 62.546875 13.398438 L 50.609375 13.398438 Z M 50.609375 1.996094 " clip-rule="nonzero"/></clipPath><clipPath id="ecfe12ccc6"><path d="M 56.5625 1.996094 C 53.277344 1.996094 50.609375 4.550781 50.609375 7.699219 C 50.609375 10.847656 53.277344 13.398438 56.5625 13.398438 C 59.851562 13.398438 62.519531 10.847656 62.519531 7.699219 C 62.519531 4.550781 59.851562 1.996094 56.5625 1.996094 Z M 56.5625 1.996094 " clip-rule="nonzero"/></clipPath></defs><g clip-path="url(#4a948e9194)"><path fill="#ffffff" d="M 0 0 L 112.003906 0 L 112.003906 112.003906 L 0 112.003906 Z M 0 0 " fill-opacity="1" fill-rule="nonzero"/><path fill="#ffffff" d="M 0 0 L 112.003906 0 L 112.003906 112.003906 L 0 112.003906 Z M 0 0 " fill-opacity="1" fill-rule="nonzero"/></g><g clip-path="url(#0b762071fa)"><g clip-path="url(#ed3e6cebfd)"><path fill="#000000" d="M 55.46875 7.984375 L 57.660156 7.984375 L 57.660156 25.171875 L 55.46875 25.171875 Z M 55.46875 7.984375 " fill-opacity="1" fill-rule="nonzero"/></g></g><g clip-path="url(#de870747c9)"><g clip-path="url(#833c35a800)"><path fill="#0097b2" d="M 10.09375 16.949219 L 103.035156 16.949219 L 103.035156 109.890625 L 10.09375 109.890625 Z M 10.09375 16.949219 " fill-opacity="1" fill-rule="nonzero"/></g></g><g clip-path="url(#5abb1a8314)"><g clip-path="url(#451b6bb11b)"><path fill="#0097b2" d="M 6.089844 45.121094 L 19.949219 45.121094 L 19.949219 82.421875 L 6.089844 82.421875 Z M 6.089844 45.121094 " fill-opacity="1" fill-rule="nonzero"/></g></g><g clip-path="url(#c4fd6193c9)"><g clip-path="url(#2643c8b567)"><path fill="#0097b2" d="M 93.179688 45.121094 L 107.039062 45.121094 L 107.039062 82.421875 L 93.179688 82.421875 Z M 93.179688 45.121094 " fill-opacity="1" fill-rule="nonzero"/></g></g><g clip-path="url(#f567f49e90)"><g clip-path="url(#f0aa356d64)"><path fill="#ffffff" d="M 19.949219 36.898438 L 93.230469 36.898438 L 93.230469 90.496094 L 19.949219 90.496094 Z M 19.949219 36.898438 " fill-opacity="1" fill-rule="nonzero"/></g></g><g clip-path="url(#e1d07d6007)"><g clip-path="url(#b354065051)"><path fill="#ffffff" d="M 26.652344 54.972656 L 86.457031 54.972656 L 86.457031 85.113281 L 26.652344 85.113281 Z M 26.652344 54.972656 " fill-opacity="1" fill-rule="nonzero"/></g></g><g clip-path="url(#8f8e44b2d6)"><g clip-path="url(#1b17286593)"><path fill="#000000" d="M 32.015625 57.308594 L 81.109375 57.308594 L 81.109375 85.113281 L 32.015625 85.113281 Z M 32.015625 57.308594 " fill-opacity="1" fill-rule="nonzero"/></g></g><g clip-path="url(#b3cfbc1db1)"><g clip-path="url(#084dfc9569)"><path fill="#ffffff" d="M 32.015625 49.75 L 81.109375 49.75 L 81.109375 77.554688 L 32.015625 77.554688 Z M 32.015625 49.75 " fill-opacity="1" fill-rule="nonzero"/></g></g><g clip-path="url(#1444d2b57a)"><g clip-path="url(#7e5953643b)"><path fill="#000000" d="M 34.515625 45.121094 L 53.046875 45.121094 L 53.046875 63.652344 L 34.515625 63.652344 Z M 34.515625 45.121094 " fill-opacity="1" fill-rule="nonzero"/></g></g><g clip-path="url(#a7483cd71a)"><g clip-path="url(#8608e78083)"><path fill="#000000" d="M 60.082031 45.121094 L 78.613281 45.121094 L 78.613281 63.652344 L 60.082031 63.652344 Z M 60.082031 45.121094 " fill-opacity="1" fill-rule="nonzero"/></g></g><g clip-path="url(#dcb2d01991)"><g clip-path="url(#ff3aa82f16)"><path fill="#ffffff" d="M 26.652344 54.386719 L 86.484375 54.386719 L 86.484375 63.699219 L 26.652344 63.699219 Z M 26.652344 54.386719 " fill-opacity="1" fill-rule="nonzero"/></g></g><g clip-path="url(#60f436b5cf)"><g clip-path="url(#ecfe12ccc6)"><path fill="#ff914d" d="M 50.609375 1.996094 L 62.5 1.996094 L 62.5 13.398438 L 50.609375 13.398438 Z M 50.609375 1.996094 " fill-opacity="1" fill-rule="nonzero"/></g></g></svg>